<svg xmlns="http://www.w3.org/2000/svg" width="54" height="40" viewBox="0 0 54 40" fill="none">
<path d="M7.14344 20.3984C8.95787 18.0268 11.8295 16.9696 15.1155 16.9696C21.1874 16.9696 25.5735 21.0699 25.5735 27.9847C25.5735 34.4853 21.4732 40 12.8582 40C4.94326 40 0 34.3424 0 25.1559C0 12.8692 7.38631 3.22559 20.7445 0.0396154C21.5303 -0.146114 22.4018 0.33964 22.6733 1.11113L22.9447 1.88262C23.2162 2.65411 22.8018 3.41132 22.0161 3.63991C13.2011 6.11154 7.85778 11.4834 6.5291 20.1841C6.4148 20.9842 6.6434 21.0556 7.14344 20.3984ZM35.4029 20.3984C37.2173 18.0268 40.089 16.9696 43.3749 16.9696C49.4469 16.9696 53.8329 21.0699 53.8329 27.9847C53.8329 34.4853 49.7326 40 41.1176 40C33.2027 40 28.2594 34.3424 28.2594 25.1559C28.2594 12.8692 35.6457 3.22559 49.0183 0.0396154C49.804 -0.146114 50.6755 0.33964 50.947 1.11113L51.2184 1.88262C51.4899 2.65411 51.0756 3.41132 50.2898 3.63991C41.4748 6.11154 36.1315 11.4834 34.8028 20.1841C34.6742 20.9842 34.9171 21.0556 35.4029 20.3984Z" fill="#7A3BFF"/>
</svg>