<svg xmlns="http://www.w3.org/2000/svg" width="106" height="106" viewBox="0 0 106 106" fill="none">
<path d="M106 0L106 106L2.99599e-06 106L7.62939e-06 -4.63341e-06L106 0Z" fill="#1E242F"/>
<rect width="53" height="106" fill="#6E32EE"/>
<path d="M90.2162 69.5405H87.2973V24.6216C87.2973 23.8108 86.4865 23 85.6757 23H20.1622C19.3514 23 18.5405 23.8108 18.5405 24.6216V69.5405H15.6216C14.8108 69.5405 14 70.3514 14 71.1622V77C14 77.3243 14.1622 77.6487 14.3243 77.973L17.5676 82.3513C17.8919 82.8378 18.3784 83 18.8649 83H86.973C87.4595 83 87.9459 82.8378 88.2703 82.3513L91.5135 77.973C91.6757 77.6487 91.8378 77.3243 91.8378 77V71.1622C91.8378 70.1892 91.027 69.5405 90.2162 69.5405ZM25.027 31.1081C25.027 30.2973 25.8378 29.4865 26.6486 29.4865H79.1892C80 29.4865 80.8108 30.2973 80.8108 31.1081V64.6757C80.8108 65.4865 80 66.2973 79.1892 66.2973H26.6486C25.8378 66.2973 25.027 65.4865 25.027 64.6757V31.1081Z" fill="#FFD363"/>
<path d="M44.1617 52.6756H48.0536V56.5675C48.0536 57.5405 48.8644 58.1891 49.6752 58.1891H56.1617C56.9725 58.1891 57.7833 57.5405 57.7833 56.5675V52.6756H61.6752C62.486 52.6756 63.2968 51.8648 63.2968 51.054V44.5675C63.2968 43.5945 62.486 42.9459 61.6752 42.9459H57.7833V39.054C57.7833 38.081 56.9725 37.4324 56.1617 37.4324H49.6752C48.8644 37.4324 48.0536 38.081 48.0536 39.054V42.9459H44.1617C43.3508 42.9459 42.54 43.5945 42.54 44.5675V51.054C42.54 52.027 43.3508 52.6756 44.1617 52.6756Z" fill="#FFD363"/>
</svg>