<svg xmlns="http://www.w3.org/2000/svg" width="106" height="106" viewBox="0 0 106 106" fill="none">
<path d="M106 0L106 106L2.99599e-06 106L7.62939e-06 -4.63341e-06L106 0Z" fill="#1E242F"/>
<rect width="53" height="106" fill="#6E32EE"/>
<path d="M82.0625 75.6876H75.0312V65.6564C75.0312 61.4376 71.5625 57.9689 67.3438 57.9689C63.125 57.9689 59.6562 61.4376 59.6562 65.6564V75.6876H23.9375C23.375 75.6876 23 76.1564 23 76.6251V82.0626C23 82.5314 23.375 83.0001 23.9375 83.0001H82.0625C82.5312 83.0001 83 82.5314 83 82.0626V76.6251C83 76.0626 82.5312 75.6876 82.0625 75.6876ZM67.4375 68.8439C65.6562 68.8439 64.25 67.4376 64.25 65.6564C64.25 63.8751 65.6562 62.4689 67.4375 62.4689C69.2188 62.4689 70.625 63.8751 70.625 65.6564C70.5312 67.3439 69.125 68.8439 67.4375 68.8439Z" fill="#FFD363"/>
<path d="M36.3125 68.6562H57.875V65.6562C57.875 64.1562 58.25 62.6562 58.9062 61.3438H36.3125C35.75 61.3438 35.375 61.8125 35.375 62.2812V67.7187C35.375 68.2812 35.75 68.6562 36.3125 68.6562Z" fill="#FFD363"/>
<path d="M47.0928 53.0937H48.124V55.7188C48.124 56.2812 48.5928 56.6562 49.0615 56.6562H56.8428C57.3115 56.6562 57.7803 56.2812 57.7803 55.7188V53.0937H58.8115C59.374 53.0937 59.749 52.625 59.749 52.1562V43.8125C59.4678 43.8125 59.0928 43.9062 58.8115 43.9062C55.0615 43.9062 52.0615 40.9062 52.0615 37.1562C52.0615 33.4062 55.0615 30.4062 58.8115 30.4062C59.0928 30.4062 59.4678 30.4062 59.749 30.5V27.2187C59.749 26.75 59.374 26.2812 58.8115 26.2812H57.0303V23.9375C57.0303 23.375 56.6553 23 56.0928 23H49.7178C49.1553 23 48.7803 23.375 48.7803 23.9375V26.2812H46.999C46.4365 26.2812 46.0615 26.75 46.0615 27.2187V52.1562C46.1553 52.7187 46.624 53.0937 47.0928 53.0937Z" fill="#FFD363"/>
<path d="M62.375 42.875C66.125 45.5938 68.2812 49.8125 68.2812 54.5C68.2812 55.0625 68.2813 55.5312 68.1875 56.0937C70.9062 56.375 73.3438 57.7812 74.9375 59.8437C75.4063 58.1562 75.5937 56.375 75.5937 54.5C75.5937 47 71.6562 40.0625 65.4687 36.0312C65.5625 36.4062 65.5625 36.6875 65.5625 37.0625C65.5625 39.5938 64.3437 41.75 62.375 42.875Z" fill="#FFD363"/>
<path d="M54.0303 37.1563C54.0303 39.875 56.1865 42.0312 58.9053 42.0312C61.624 42.0312 63.7803 39.875 63.7803 37.1563C63.7803 34.4375 61.624 32.2812 58.9053 32.2812C56.1865 32.2812 54.0303 34.5313 54.0303 37.1563ZM59.8428 38.0938H57.9678V36.2188H59.8428V38.0938Z" fill="#FFD363"/>
</svg>