<svg xmlns="http://www.w3.org/2000/svg" width="106" height="106" viewBox="0 0 106 106" fill="none">
<path d="M106 0L106 106L2.99599e-06 106L7.62939e-06 -4.63341e-06L106 0Z" fill="#1E242F"/>
<rect width="53" height="106" fill="#6E32EE"/>
<path d="M85.6272 53.7423C83.4922 50.6518 78.8354 53.6946 73.9074 56.9159C72.5397 57.8104 71.1542 58.6732 69.8019 59.4185C70.3274 59.6191 70.7552 59.8661 71.0954 60.1174C72.2854 61.0016 72.999 62.3694 73.0505 63.868C73.1578 67.0636 70.5354 68.7041 67.9549 69.8874C65.4031 71.0589 61.3167 71.189 57.7109 71.3029C56.9686 71.3272 56.2425 71.35 55.5501 71.3801C52.023 71.5425 49.408 72.5215 49.3808 72.5296C49.2617 72.5744 49.1405 72.5957 49.0199 72.5957C48.6091 72.5957 48.2218 72.3473 48.0681 71.9409C47.869 71.4154 48.1306 70.8274 48.6554 70.629C48.773 70.5827 51.585 69.5236 55.4583 69.3472C56.1609 69.3156 56.8959 69.2928 57.6477 69.2685C61.0617 69.1612 64.9283 69.0385 67.1075 68.0382C69.9754 66.7204 71.0727 65.5724 71.0153 63.9371C70.9977 63.4233 70.8264 62.4539 69.8813 61.7505C69.2683 61.2956 68.2004 60.8781 66.4225 61.0068C65.689 61.2743 64.982 61.4764 64.3183 61.5771C58.8038 62.4252 54.0331 61.9402 49.7446 59.6419C49.4117 59.4626 48.9927 59.2046 48.4959 58.9018C44.2948 56.3331 34.4565 50.313 25.0078 59.7639H25.007C25.007 59.7654 25.0063 59.7654 25.0063 59.7654L20.5245 64.2862C20.1592 64.6551 19.9402 65.3196 20.0144 65.8326L21.3653 75.0674L22.184 80.6642C22.3266 81.6373 22.8176 81.9306 23.0983 82.0195C23.1806 82.0452 23.2872 82.0665 23.4151 82.0665C23.7238 82.0665 24.1479 81.9401 24.6249 81.4352C24.6388 81.4205 26.0088 79.9763 27.6346 78.696C29.6932 77.0739 31.4755 76.2845 33.0821 76.2845C35.5458 76.2845 38.7708 77.6986 42.1877 79.1958C46.2572 80.9803 50.8706 83 55.1275 83C68.4797 83 79.6622 70.9244 83.9184 62.8082C86.0726 58.7034 86.7128 55.3137 85.6272 53.7423Z" fill="#FFD363"/>
<path d="M46.6449 52.3987H69.789C71.5125 52.3987 72.9163 50.9957 72.9163 49.2714V26.1273C72.9163 24.4031 71.5125 23 69.789 23H46.6449C44.9214 23 43.5176 24.4031 43.5176 26.1273V49.2714C43.5176 50.9957 44.9214 52.3987 46.6449 52.3987ZM49.2158 34.5897C49.2158 34.2531 49.4899 33.9804 49.8265 33.9804H54.4987V29.3082C54.4987 28.9709 54.7714 28.6989 55.1088 28.6989H61.3259C61.6632 28.6989 61.9344 28.9709 61.9344 29.3082V33.9804H66.6073C66.944 33.9804 67.2174 34.2531 67.2174 34.5897V40.8068C67.2174 41.1442 66.944 41.4168 66.6073 41.4168H61.9344V46.0898C61.9344 46.4271 61.6632 46.6991 61.3259 46.6991H55.1088C54.7714 46.6991 54.4987 46.4271 54.4987 46.0898V41.4168H49.8265C49.4899 41.4168 49.2158 41.1442 49.2158 40.8068V34.5897Z" fill="#FFD363"/>
</svg>