<svg xmlns="http://www.w3.org/2000/svg" width="106" height="106" viewBox="0 0 106 106" fill="none">
<path d="M106 0L106 106L2.99599e-06 106L7.62939e-06 -4.63341e-06L106 0Z" fill="#1E242F"/>
<rect width="53" height="106" fill="#6E32EE"/>
<path d="M75.2583 35.1789C69.6171 35.1789 64.4809 30.5604 64.4809 25.4911V23H41.2671V25.4911C41.2671 30.5604 36.1309 35.1789 30.4898 35.1789H28V58.9786C28 72.0218 49.4528 81.5452 51.8978 82.5865L52.8728 83L53.8478 82.5865C56.2928 81.5452 77.7455 72.0243 77.7455 58.9786V35.1789H75.2583ZM62.8219 55.384H55.36V62.8572H50.3855V55.384H42.9237V50.4018H50.3855V42.9286H55.36V50.4018H62.8219V55.384Z" fill="#FFD363"/>
</svg>