<svg xmlns="http://www.w3.org/2000/svg" width="106" height="106" viewBox="0 0 106 106" fill="none">
<path d="M106 0L106 106L2.99599e-06 106L7.62939e-06 -4.63341e-06L106 0Z" fill="#1E242F"/>
<rect width="53" height="106" fill="#6E32EE"/>
<path d="M62.5 56C65.8152 56 68.9946 54.683 71.3388 52.3388C73.683 49.9946 75 46.8152 75 43.5C75 40.1848 73.683 37.0054 71.3388 34.6612C68.9946 32.317 65.8152 31 62.5 31H53C52.2044 31 51.4413 31.3161 50.8787 31.8787C50.3161 32.4413 50 33.2044 50 34C50 34.7956 50.3161 35.5587 50.8787 36.1213C51.4413 36.6839 52.2044 37 53 37H62.5C64.2239 37 65.8772 37.6848 67.0962 38.9038C68.3152 40.1228 69 41.7761 69 43.5C69 45.2239 68.3152 46.8772 67.0962 48.0962C65.8772 49.3152 64.2239 50 62.5 50H56V44.72C59.4355 44.0734 62.559 42.3041 64.88 39.69C64.1693 39.2363 63.3431 38.9968 62.5 39H53C51.6739 39 50.4021 38.4732 49.4645 37.5355C48.5268 36.5979 48 35.3261 48 34C48 32.6739 48.5268 31.4021 49.4645 30.4645C50.4021 29.5268 51.6739 29 53 29H62.5C64.7272 28.997 66.9247 29.5105 68.92 30.5C68.9766 30.002 69.0033 29.5011 69 29V24C68.9992 23.735 68.8936 23.4811 68.7063 23.2937C68.5189 23.1064 68.265 23.0008 68 23H38C37.735 23.0008 37.4811 23.1064 37.2937 23.2937C37.1064 23.4811 37.0008 23.735 37 24V29C37.0055 32.7208 38.3059 36.3236 40.678 39.1902C43.0501 42.0568 46.346 44.0084 50 44.71V50H43.5C40.1848 50 37.0054 51.317 34.6612 53.6612C32.317 56.0054 31 59.1848 31 62.5C31 65.8152 32.317 68.9946 34.6612 71.3388C37.0054 73.683 40.1848 75 43.5 75H50V80C50 80.7957 50.3161 81.5587 50.8787 82.1213C51.4413 82.6839 52.2044 83 53 83C53.7956 83 54.5587 82.6839 55.1213 82.1213C55.6839 81.5587 56 80.7957 56 80V75H62C62.7956 75 63.5587 74.6839 64.1213 74.1213C64.6839 73.5587 65 72.7957 65 72C65 71.2043 64.6839 70.4413 64.1213 69.8787C63.5587 69.3161 62.7956 69 62 69H56V56H62.5ZM43.5 69C41.7761 69 40.1228 68.3152 38.9038 67.0962C37.6848 65.8772 37 64.2239 37 62.5C37 60.7761 37.6848 59.1228 38.9038 57.9038C40.1228 56.6848 41.7761 56 43.5 56H50V69H43.5Z" fill="#FFD363"/>
</svg>