<svg xmlns="http://www.w3.org/2000/svg" width="106" height="106" viewBox="0 0 106 106" fill="none">
<path d="M106 0L106 106L2.99599e-06 106L7.62939e-06 -4.63341e-06L106 0Z" fill="#1E242F"/>
<rect width="53" height="106" fill="#6E32EE"/>
<path d="M67.7698 37.5667C67.7698 29.5353 61.2372 23 53.2045 23C45.1732 23 38.6392 29.5353 38.6392 37.5667C38.6405 45.598 45.1732 54.1227 53.2045 54.1227C61.2372 54.1227 67.7698 45.5973 67.7698 37.5667Z" fill="#FFD363"/>
<path d="M26 73.4047C26 78.7034 38.18 83.0001 53.2047 83.0001C68.2293 83.0001 80.4107 78.7034 80.4107 73.4047C80.4107 64.2761 74.098 56.6274 65.6007 54.5701C67.8633 56.0401 69.422 58.4967 69.664 61.3281C71.598 61.7614 73.0493 63.4901 73.0493 65.5534C73.0493 67.9427 71.1053 69.8867 68.716 69.8867C66.3267 69.8867 64.3827 67.9427 64.3827 65.5534C64.3827 63.5281 65.782 61.8274 67.6627 61.3547C67.3547 58.4534 65.2587 56.0861 62.502 55.3594C59.998 56.8427 57.0867 57.7061 53.972 57.7061H52.438C49.3387 57.7061 46.438 56.8507 43.9427 55.3807C41.0647 56.1761 38.932 58.7694 38.8333 61.8734C39.2193 62.0974 39.5313 62.4441 39.7227 62.8641C41.1467 63.5361 42.4047 64.9507 43.368 66.9647C43.5293 67.3041 43.55 67.6867 43.432 68.0361C44.0093 69.5221 44.3393 71.1461 44.3393 72.5101C44.3393 74.4214 44.3393 76.2287 42.256 76.6927C42.03 76.8807 41.748 76.9834 41.4513 76.9834H40.0587C39.36 76.9834 38.792 76.4147 38.792 75.7174L38.7967 75.6281C38.8433 74.9741 39.3973 74.4507 40.0593 74.4507H41.4513C41.5933 74.4507 41.7333 74.4747 41.8673 74.5221C41.9513 74.4981 41.978 74.4787 41.978 74.4787C42.1333 74.2034 42.1333 73.0594 42.1333 72.5101C42.1333 71.4034 41.856 70.0654 41.3693 68.8207C41.1173 68.6774 40.914 68.4607 40.7887 68.1987C39.944 66.4314 38.7967 65.2901 37.8633 65.2901C36.9093 65.2901 35.7047 66.5241 34.8647 68.3594C34.7273 68.6587 34.4867 68.9027 34.19 69.0474C33.7513 70.2367 33.51 71.4614 33.51 72.5094C33.51 72.9707 33.51 74.1954 33.6867 74.4827C33.6887 74.4827 33.728 74.5067 33.838 74.5341C33.982 74.4787 34.1367 74.4501 34.292 74.4501H35.6867C36.3307 74.4501 36.8687 74.9361 36.9427 75.5694L36.95 75.5834L36.9527 75.6674C36.9527 76.4147 36.3847 76.9834 35.6873 76.9834H34.292C34.0153 76.9834 33.748 76.8914 33.528 76.7227C32.732 76.5727 32.17 76.2214 31.814 75.6501C31.384 74.9581 31.3053 74.0501 31.3053 72.5101C31.3053 71.1587 31.6173 69.6034 32.184 68.1174C32.1007 67.7994 32.1287 67.4674 32.2667 67.1681C32.8573 65.8774 33.608 64.7721 34.4373 63.9727C34.8933 63.5334 35.3827 63.1807 35.896 62.9221C36.0893 62.4707 36.4247 62.1021 36.834 61.8681C36.9113 58.7821 38.5513 56.0821 40.9953 54.5267C32.404 56.5174 26 64.2094 26 73.4047ZM56.538 73.0834C56.538 72.8527 56.7473 72.6667 57.004 72.6667H59.538V70.1334C59.538 69.8754 59.724 69.6667 59.9547 69.6667H62.4547C62.684 69.6667 62.8713 69.8754 62.8713 70.1334V72.6667H65.4053C65.6633 72.6667 65.8713 72.8527 65.8713 73.0834V75.5834C65.8713 75.8141 65.6627 76.0001 65.4053 76.0001H62.8713V78.5334C62.8713 78.7914 62.684 79.0001 62.4547 79.0001H59.9547C59.724 79.0001 59.538 78.7914 59.538 78.5334V76.0001H57.004C56.7473 76.0001 56.538 75.8141 56.538 75.5834V73.0834Z" fill="#FFD363"/>
<path d="M68.7163 67.5533C69.8209 67.5533 70.7163 66.6579 70.7163 65.5533C70.7163 64.4488 69.8209 63.5533 68.7163 63.5533C67.6117 63.5533 66.7163 64.4488 66.7163 65.5533C66.7163 66.6579 67.6117 67.5533 68.7163 67.5533Z" fill="#FFD363"/>
</svg>