<svg xmlns="http://www.w3.org/2000/svg" width="106" height="106" viewBox="0 0 106 106" fill="none">
<path d="M106 0L106 106L2.99599e-06 106L7.62939e-06 -4.63341e-06L106 0Z" fill="#1E242F"/>
<rect width="53" height="106" fill="#6E32EE"/>
<path d="M34.3628 65.036C32.5988 65.036 30.9428 65.72 29.6948 66.9681C27.3788 69.2841 26.7068 76.664 26.5868 78.116C26.5628 78.476 26.6948 78.8121 26.9348 79.064C27.1628 79.292 27.4748 79.4121 27.7868 79.4121H27.8828C29.3348 79.292 36.7268 78.62 39.0308 76.316C41.6108 73.736 41.6108 69.548 39.0308 66.9681C37.7828 65.72 36.1268 65.036 34.3628 65.036Z" fill="#FFD363"/>
<path d="M68.2826 24.3813C62.344 25.7266 55.5568 28.3554 50.4067 33.5119C47.3467 36.5599 44.6706 39.9199 42.5826 43.2919C41.0347 42.4999 39.2947 42.0679 37.5787 42.0679C34.7706 42.0679 32.1067 43.1839 30.0787 45.224L23.3467 51.9439C23.0106 52.2919 22.9027 52.808 23.0947 53.252C23.2747 53.6959 23.7187 53.9959 24.1986 53.9959H37.9866C36.8826 58.9999 37.6866 63.1279 40.2787 65.7199C42.8467 68.2879 47.0467 69.1039 52.0027 68.0119V81.7999C52.0027 82.2919 52.3027 82.724 52.7467 82.9159C52.9027 82.9759 53.0586 82.9999 53.2027 82.9999C53.5266 82.9999 53.8266 82.88 54.0546 82.652L60.7747 75.9319C64.1586 72.5479 64.8787 67.5679 62.7067 63.4159C66.0787 61.3399 69.4386 58.652 72.4866 55.5919C77.8559 50.2282 80.5042 43.1772 81.7978 37.1105C76.4844 35.5024 70.0216 29.5728 68.2826 24.3813ZM70.4947 44.0959C69.3546 45.2479 67.8187 45.8719 66.1986 45.8719C64.5787 45.8719 63.0546 45.2479 61.9027 44.0959C59.5386 41.7319 59.5386 37.8679 61.9027 35.5039C63.0546 34.352 64.5787 33.7279 66.1986 33.7279C67.8187 33.7279 69.3546 34.352 70.4947 35.5039C72.8706 37.8679 72.8706 41.7319 70.4947 44.0959Z" fill="#FFD363"/>
<path d="M82.9621 24.164C82.938 23.552 82.4461 23.072 81.8341 23.036C81.8341 23.036 81.3061 23 80.358 23C78.5329 23 74.933 23.1318 70.6602 23.8972C72.2628 28.2146 77.8115 33.279 82.2461 34.7395C83.2051 28.9658 82.9846 24.5415 82.9621 24.164Z" fill="#FFD363"/>
</svg>