<svg width="106" height="106" viewBox="0 0 106 106" fill="none" xmlns="http://www.w3.org/2000/svg">
<path d="M106 0L106 106L2.99599e-06 106L7.62939e-06 -4.63341e-06L106 0Z" fill="#F03F5F"/>
<path d="M23 23V83H83V23H23ZM55.6752 69.7971C55.6752 75.6352 52.2524 78.2924 47.2562 78.2924C42.7419 78.2924 40.1276 75.9562 38.7981 73.1419L43.3876 70.3638C44.2733 71.9352 45.079 73.2638 47.0162 73.2638C48.8686 73.2638 50.0371 72.5391 50.0371 69.721V50.5495H55.6752V69.7971ZM69 78.3029C63.7619 78.3029 60.381 75.8076 58.7257 72.5371L63.3076 69.8752C64.5162 71.8486 66.0886 73.299 68.8695 73.299C71.2057 73.299 72.6981 72.1314 72.6981 70.5181C72.6981 68.5848 71.1648 67.9 68.5933 66.7752L67.1838 66.1705C63.1152 64.4371 60.4124 62.2657 60.4124 57.6752C60.4124 53.4467 63.6343 50.2276 68.6695 50.2276C72.2543 50.2276 74.8314 51.4752 76.6886 54.7419L72.2981 57.561C71.3314 55.8276 70.2886 55.1448 68.6695 55.1448C67.0181 55.1448 65.9714 56.1924 65.9714 57.561C65.9714 59.2524 67.0191 59.9371 69.4381 60.9848L70.8476 61.5886C75.6381 63.6429 78.3429 65.7371 78.3429 70.4457C78.34 75.5219 74.3524 78.3029 69 78.3029Z" fill="white"/>
</svg>
