<svg xmlns="http://www.w3.org/2000/svg" width="106" height="106" viewBox="0 0 106 106" fill="none">
<path d="M106 0L106 106L2.99599e-06 106L7.62939e-06 -4.63341e-06L106 0Z" fill="#F03F5F"/>
<g clip-path="url(#clip0)">
<path d="M51.9372 23C36.6436 23 37.5831 29.6418 37.5831 29.6418V36.5184H52.2103V38.5831H31.7988C31.7988 38.5831 22 37.4743 22 52.9208C22 68.3673 30.5535 67.8211 30.5535 67.8211H35.655V60.655C35.655 60.655 35.3819 52.1015 44.0719 52.1015H58.5626C58.5626 52.1015 66.701 52.2326 66.701 44.2362V31.0073C66.701 31.0073 67.9408 23 51.9372 23ZM43.8807 27.6263C44.4004 27.6263 44.9083 27.7804 45.3403 28.0691C45.7724 28.3578 46.1091 28.7681 46.308 29.2481C46.5068 29.7282 46.5589 30.2564 46.4575 30.7661C46.3561 31.2757 46.1059 31.7438 45.7385 32.1113C45.371 32.4787 44.9029 32.7289 44.3933 32.8303C43.8837 32.9316 43.3554 32.8796 42.8754 32.6808C42.3953 32.4819 41.985 32.1452 41.6963 31.7131C41.4076 31.2811 41.2535 30.7731 41.2535 30.2535C41.2535 29.9085 41.3215 29.5669 41.4535 29.2481C41.5855 28.9294 41.7791 28.6398 42.023 28.3958C42.5157 27.9031 43.184 27.6263 43.8807 27.6263Z" fill="white"/>
<path d="M52.3745 83C67.668 83 66.7286 76.3582 66.7286 76.3582V69.4815H52.1014V67.4114H72.5128C72.5128 67.4114 82.3116 68.5038 82.3116 53.0737C82.3116 37.6436 73.7582 38.1734 73.7582 38.1734H68.6567V45.345C68.6567 45.345 68.9298 53.893 60.2343 53.893H45.7491C45.7491 53.893 37.6107 53.7619 37.6107 61.7801V74.9927C37.6107 74.9927 36.3708 83 52.3745 83ZM60.4309 78.3737C59.91 78.3747 59.4004 78.2213 58.9668 77.9326C58.5331 77.644 58.1948 77.2332 57.9947 76.7523C57.7946 76.2713 57.7417 75.7418 57.8427 75.2307C57.9436 74.7197 58.194 74.2501 58.5619 73.8813C58.9299 73.5126 59.399 73.2613 59.9098 73.1593C60.4207 73.0573 60.9503 73.1091 61.4317 73.3082C61.913 73.5073 62.3245 73.8447 62.6141 74.2778C62.9036 74.7108 63.0581 75.22 63.0581 75.741C63.0588 76.0864 62.9914 76.4287 62.8597 76.748C62.728 77.0674 62.5346 77.3577 62.2906 77.6022C62.0465 77.8468 61.7567 78.0408 61.4376 78.1732C61.1185 78.3055 60.7764 78.3737 60.4309 78.3737Z" fill="white"/>
</g>
<defs>
<clipPath id="clip0">
<rect width="60.3113" height="60" fill="white" transform="translate(20 23)"/>
</clipPath>
</defs>
</svg>